<svg xmlns="http://www.w3.org/2000/svg" viewBox="0 0 512 512" shape-rendering="crispEdges">
  <rect width="512" height="512" fill="#1a0b2e"/>
  <g fill="#8b5cf6" opacity="0.3">
    <rect x="64" y="64" width="32" height="32"/>
    <rect x="416" y="96" width="32" height="32"/>
    <rect x="128" y="416" width="32" height="32"/>
    <rect x="384" y="384" width="32" height="32"/>
  </g>
  <g fill="#fbbf24">
    <rect x="224" y="64" width="64" height="64"/>
    <rect x="192" y="128" width="128" height="32"/>
    <rect x="160" y="160" width="192" height="32"/>
    <rect x="128" y="192" width="256" height="32"/>
    <rect x="96" y="224" width="320" height="64"/>
    <rect x="128" y="288" width="256" height="32"/>
    <rect x="160" y="320" width="192" height="32"/>
    <rect x="192" y="352" width="128" height="32"/>
    <rect x="224" y="384" width="64" height="64"/>
  </g>
  <g fill="#ec4899">
    <rect x="240" y="240" width="32" height="32"/>
  </g>
  <g fill="#ffffff">
    <rect x="240" y="240" width="8" height="8"/>
  </g>
</svg>
